<svg xmlns="http://www.w3.org/2000/svg" width="1024" height="1024" viewBox="0 0 1024 1024" version="1.1"><path d="M 229.971 206.750 L 223.500 213.500 230.250 207.029 C 233.963 203.470, 237 200.432, 237 200.279 C 237 199.543, 235.982 200.480, 229.971 206.750 M 214.966 221.750 L 209.500 227.500 215.250 222.034 C 220.592 216.956, 221.458 216, 220.716 216 C 220.560 216, 217.972 218.588, 214.966 221.750 M 675.466 352 C 675.466 381.975, 675.594 394.237, 675.749 379.250 C 675.905 364.262, 675.905 339.737, 675.749 324.750 C 675.594 309.762, 675.466 322.025, 675.466 352 M 732.467 352.500 C 732.467 382.750, 732.594 395.269, 732.749 380.321 C 732.905 365.372, 732.905 340.622, 732.749 325.321 C 732.594 310.019, 732.467 322.250, 732.467 352.500 M 753.343 396.500 C 753.346 400.900, 753.522 402.576, 753.733 400.224 C 753.945 397.872, 753.942 394.272, 753.727 392.224 C 753.512 390.176, 753.339 392.100, 753.343 396.500 M 638.392 405 C 638.392 412.425, 638.549 415.462, 638.742 411.750 C 638.934 408.038, 638.934 401.962, 638.742 398.250 C 638.549 394.538, 638.392 397.575, 638.392 405 M 915.482 435.802 C 915.471 439.486, 915.618 441.707, 915.807 440.738 C 915.997 439.769, 916.628 439.270, 917.211 439.630 C 917.937 440.079, 918.044 438.746, 917.553 435.392 C 916.478 428.059, 915.502 428.253, 915.482 435.802 M 105.511 442.250 C 105.114 443.488, 104.870 445.314, 104.968 446.310 C 105.066 447.305, 104.722 448.655, 104.203 449.310 C 103.685 449.964, 103.003 453.425, 102.688 457 C 102.374 460.575, 101.789 464.850, 101.389 466.500 C 100.989 468.150, 100.626 473.843, 100.581 479.152 C 100.536 484.460, 100.126 488.573, 99.669 488.292 C 99.211 488.011, 98.975 488.618, 99.144 489.641 C 99.312 490.663, 99.080 492.091, 98.627 492.813 C 98.118 493.625, 98.474 494.866, 99.557 496.063 C 100.521 497.128, 100.903 498, 100.405 498 C 99.907 498, 99.402 503.288, 99.283 509.750 C 99.164 516.213, 98.913 526.225, 98.725 532 C 98.538 537.775, 98.718 543.202, 99.126 544.060 C 99.534 544.919, 100.156 550.769, 100.508 557.060 C 100.861 563.352, 101.336 569.625, 101.564 571 C 101.792 572.375, 102.274 575.750, 102.634 578.500 C 102.994 581.250, 103.786 583.831, 104.395 584.235 C 105.168 584.749, 105.175 584.974, 104.417 584.985 C 102.594 585.010, 103.139 588.363, 105.380 590.911 C 106.546 592.237, 106.825 592.939, 106 592.469 C 104.797 591.785, 104.726 591.901, 105.641 593.058 C 106.268 593.851, 107.052 596.525, 107.382 599 C 107.712 601.475, 108.256 605.525, 108.590 608 C 109.474 614.534, 112.025 623.262, 113.566 625.023 C 114.453 626.036, 114.586 627.040, 113.965 628.023 C 113.451 628.835, 113.031 629.950, 113.031 630.500 C 113.031 631.050, 113.467 630.825, 114 630 C 114.582 629.099, 114.975 628.975, 114.985 629.691 C 114.993 630.346, 114.528 631.174, 113.951 631.530 C 113.235 631.973, 113.273 632.624, 114.074 633.589 C 114.718 634.365, 114.956 635, 114.602 635 C 114.249 635, 114.900 636.844, 116.049 639.097 C 117.199 641.350, 117.901 643.432, 117.609 643.724 C 117.318 644.015, 117.736 645.827, 118.540 647.749 C 119.343 649.671, 120 652.215, 120 653.401 C 120 654.588, 120.898 656.206, 121.995 656.997 C 123.093 657.788, 124.289 660.025, 124.652 661.968 C 125.016 663.910, 125.898 666.900, 126.612 668.611 C 127.326 670.321, 128.139 672.985, 128.420 674.530 C 128.700 676.074, 129.326 677.599, 129.810 677.919 C 130.295 678.239, 131.019 679.834, 131.419 681.465 C 131.819 683.096, 132.983 686.267, 134.005 688.511 C 135.027 690.755, 136.007 693.228, 136.182 694.006 C 136.357 694.785, 137.287 696.312, 138.250 697.400 C 139.213 698.487, 140 700.044, 140 700.860 C 140 701.675, 140.597 703.053, 141.327 703.921 C 142.058 704.790, 143.231 707.525, 143.935 710 C 144.639 712.475, 146.448 716.333, 147.955 718.574 C 149.462 720.815, 151.010 723.905, 151.396 725.442 C 151.782 726.979, 152.369 727.965, 152.700 727.633 C 153.340 726.994, 156.043 731.537, 156.432 733.904 C 156.559 734.676, 157.688 736.139, 158.942 737.154 C 160.196 738.169, 160.938 739, 160.590 739 C 159.597 739, 163.636 746.414, 166.452 749.761 C 167.853 751.426, 169 753.191, 169 753.682 C 169 754.174, 170.332 756.134, 171.959 758.038 C 173.587 759.942, 174.937 762.063, 174.959 762.750 C 174.982 763.438, 175.353 764, 175.784 764 C 176.216 764, 177.416 765.462, 178.452 767.250 C 181.040 771.716, 184.651 775.981, 185.389 775.445 C 185.725 775.200, 185.793 775.282, 185.539 775.627 C 185.105 776.219, 190.576 784.925, 192.057 786 C 192.436 786.275, 193.928 788.250, 195.373 790.390 C 196.818 792.529, 198 793.949, 198 793.545 C 198 793.141, 199.610 794.766, 201.577 797.155 C 203.544 799.545, 206.719 802.962, 208.632 804.750 C 210.546 806.538, 211.936 808, 211.721 808 C 211.506 808, 213.956 810.667, 217.165 813.926 C 220.374 817.185, 223.007 820.448, 223.015 821.176 C 223.028 822.272, 223.175 822.272, 223.868 821.179 C 224.475 820.222, 225.156 820.810, 226.348 823.321 C 227.852 826.490, 230.372 828.556, 232.250 828.159 C 232.662 828.071, 233 828.338, 233.001 828.750 C 233.001 829.163, 234.576 831.269, 236.501 833.432 C 238.425 835.594, 240 837.061, 240 836.691 C 240 836.322, 240.877 836.770, 241.949 837.688 C 243.021 838.606, 243.727 839.633, 243.518 839.970 C 243.310 840.308, 245.358 842.098, 248.070 843.948 C 250.781 845.799, 253 847.918, 253 848.657 C 253 849.777, 254.325 850.467, 255.250 849.827 C 255.387 849.732, 257.075 851.120, 259 852.913 C 263.894 857.470, 265.091 858.443, 268.452 860.600 C 270.075 861.642, 272.359 863.396, 273.527 864.497 C 276.500 867.301, 279.323 869.490, 280.500 869.903 C 283.466 870.945, 283.946 871.278, 283.508 871.987 C 283.243 872.415, 285.293 873.740, 288.062 874.931 C 290.832 876.123, 293.898 877.898, 294.877 878.877 C 295.856 879.856, 299.322 882.166, 302.578 884.010 C 305.835 885.854, 309.901 888.413, 311.613 889.695 C 313.325 890.978, 316.780 892.728, 319.292 893.584 C 321.804 894.440, 325.039 896.233, 326.481 897.570 C 327.923 898.906, 329.362 900, 329.679 900 C 330.821 900, 343.508 906.482, 343.833 907.232 C 344.017 907.654, 344.939 908, 345.883 908 C 346.828 908, 348.081 908.481, 348.669 909.069 C 349.683 910.083, 351.904 910.754, 354.809 910.923 C 355.529 910.966, 355.870 911.402, 355.566 911.893 C 355.262 912.385, 356.116 913.063, 357.463 913.401 C 358.810 913.739, 361.169 914.494, 362.706 915.078 C 364.243 915.663, 365.615 916.104, 365.755 916.059 C 365.895 916.014, 367.582 916.634, 369.505 917.438 C 371.427 918.241, 373 918.684, 373 918.423 C 373 918.162, 374.462 918.728, 376.250 919.680 C 378.038 920.632, 379.794 921.333, 380.154 921.238 C 380.514 921.142, 381.356 921.725, 382.027 922.532 C 382.697 923.339, 384.055 924, 385.044 924 C 386.034 924, 390.704 925.313, 395.422 926.918 C 400.140 928.522, 404 929.641, 404 929.404 C 404 929.167, 405.575 929.631, 407.500 930.436 C 409.425 931.240, 411 931.719, 411 931.500 C 411 931.281, 412.636 931.786, 414.635 932.621 C 416.634 933.456, 420.347 934.387, 422.885 934.689 C 425.423 934.991, 428.175 935.582, 429 936.003 C 429.825 936.424, 432.525 937.097, 435 937.500 C 437.475 937.903, 440.185 938.591, 441.023 939.030 C 441.861 939.468, 445.203 940.114, 448.452 940.465 C 451.700 940.816, 454.686 941.306, 455.088 941.554 C 455.490 941.803, 459.782 942.227, 464.626 942.497 C 469.471 942.767, 474.899 943.472, 476.690 944.063 C 482.021 945.822, 505.708 946.379, 531 945.341 C 538.425 945.036, 547.200 944.779, 550.500 944.771 C 554.543 944.760, 555.848 944.492, 554.500 943.948 C 553.009 943.346, 553.644 943.106, 557 943.003 C 562.611 942.831, 567.746 942.227, 571 941.356 C 572.375 940.988, 575.590 940.573, 578.144 940.435 C 580.699 940.297, 583.624 939.765, 584.644 939.253 C 585.665 938.741, 588.435 938.231, 590.799 938.118 C 593.164 938.005, 596.155 937.511, 597.446 937.020 C 598.738 936.529, 600.066 936.399, 600.397 936.731 C 600.729 937.062, 601 936.906, 601 936.385 C 601 935.863, 602.110 935.344, 603.466 935.232 C 604.822 935.120, 609.435 934.084, 613.716 932.930 C 617.997 931.777, 622.400 930.707, 623.500 930.554 C 627.152 930.047, 631 928.792, 631 928.110 C 631 927.739, 632.192 927.338, 633.649 927.217 C 635.106 927.096, 637.650 926.323, 639.303 925.499 C 640.955 924.674, 642.659 924, 643.089 924 C 643.518 924, 644.912 923.604, 646.185 923.120 C 647.458 922.636, 648.950 922.147, 649.500 922.035 C 650.050 921.922, 651.063 921.363, 651.750 920.793 C 652.438 920.222, 653 920.090, 653 920.500 C 653 920.910, 653.563 920.799, 654.250 920.255 C 654.938 919.710, 657.862 918.494, 660.750 917.552 C 663.638 916.610, 666 915.425, 666 914.920 C 666 914.414, 666.675 914, 667.499 914 C 668.324 914, 671.137 912.904, 673.749 911.565 C 676.362 910.226, 680.525 908.344, 683 907.384 C 685.475 906.424, 687.952 905.157, 688.504 904.569 C 689.056 903.981, 690.138 903.364, 690.909 903.198 C 691.681 903.032, 694.126 902.020, 696.344 900.948 C 698.561 899.877, 700.950 899, 701.653 899 C 702.355 899, 703.411 898.100, 704 897 C 704.589 895.900, 705.735 895, 706.546 895 C 707.358 895, 710.655 893.203, 713.872 891.007 C 717.090 888.811, 721.472 886.285, 723.611 885.395 C 725.750 884.504, 727.725 883.488, 728 883.138 C 728.275 882.787, 729.211 882.050, 730.081 881.500 C 737.736 876.658, 743 872.775, 743 871.969 C 743 871.436, 743.338 871.107, 743.750 871.237 C 745.004 871.634, 754.079 864.936, 753.518 864.028 C 753.230 863.563, 755.069 862.177, 757.605 860.949 C 760.142 859.721, 763.703 857.318, 765.519 855.608 C 769.967 851.423, 771.157 850.530, 773.472 849.646 C 775.098 849.025, 775.190 848.736, 774 848 C 772.810 847.265, 772.903 846.979, 774.528 846.377 C 777.832 845.154, 783 840.850, 783 839.322 C 783 838.530, 783.405 838.132, 783.900 838.438 C 784.718 838.944, 800.984 823.344, 808.654 814.697 C 810.389 812.742, 812.001 811.334, 812.236 811.569 C 812.471 811.805, 813.277 810.760, 814.026 809.248 C 814.775 807.737, 816.788 805.141, 818.499 803.480 C 820.210 801.819, 821.919 799.653, 822.298 798.666 C 822.676 797.680, 823.439 797.153, 823.993 797.496 C 824.547 797.838, 825 797.670, 825 797.122 C 825 796.574, 827.012 793.960, 829.472 791.313 C 831.931 788.666, 833.956 786.224, 833.972 785.888 C 833.987 785.551, 835.309 783.628, 836.909 781.615 C 838.768 779.275, 840.003 778.413, 840.330 779.227 C 840.660 780.048, 840.914 779.879, 841.046 778.750 C 841.158 777.788, 841.308 776.663, 841.378 776.250 C 841.449 775.837, 842.743 773.883, 844.253 771.906 C 845.764 769.929, 847 767.899, 847 767.395 C 847 766.892, 848.125 765.266, 849.500 763.783 C 850.875 762.301, 852 760.865, 852 760.594 C 852 759.985, 867.244 735.692, 868.061 735 C 868.950 734.246, 871.667 728.919, 873.033 725.250 C 873.698 723.462, 874.676 722, 875.205 722 C 875.734 722, 875.963 721.438, 875.714 720.750 C 875.465 720.063, 875.825 718.825, 876.514 718 C 877.203 717.175, 879.198 713.209, 880.948 709.187 C 882.697 705.165, 884.887 700.987, 885.814 699.904 C 886.741 698.821, 887.522 697.612, 887.549 697.218 C 887.645 695.823, 889.263 691.438, 891.562 686.341 C 892.842 683.504, 893.874 680.354, 893.854 679.341 C 893.810 677.039, 895.794 670.949, 895.920 673 C 896.067 675.388, 898.840 669.349, 901.151 661.608 C 902.318 657.699, 903.836 653.375, 904.523 652 C 905.656 649.734, 908.322 641.277, 909.663 635.698 C 909.953 634.489, 910.151 632.463, 910.102 631.195 C 910.044 629.684, 910.414 629.138, 911.177 629.609 C 911.951 630.088, 912.131 629.783, 911.714 628.696 C 911.369 627.798, 911.492 626.814, 911.986 626.509 C 912.480 626.203, 913.226 623.826, 913.643 621.227 C 914.061 618.627, 914.451 616.275, 914.510 616 C 915.200 612.809, 916.422 606.121, 916.566 604.750 C 916.667 603.788, 916.864 602.888, 917.004 602.750 C 917.352 602.408, 918.229 594.940, 919.030 585.500 C 919.174 583.801, 919.320 583.876, 920 586 C 920.869 588.713, 920.893 588.601, 921.491 579 C 921.714 575.425, 922.299 570.162, 922.790 567.304 C 923.282 564.446, 923.331 561.536, 922.899 560.837 C 922.468 560.139, 922.477 559.102, 922.921 558.534 C 924.001 557.149, 923.978 557.523, 924.501 533 C 924.929 512.927, 924.372 494.295, 923.373 495.294 C 923.133 495.534, 922.779 505.128, 922.586 516.615 C 922.394 528.102, 921.852 541.550, 921.384 546.500 C 920.587 554.915, 920.486 555.207, 919.833 551 C 919.365 547.987, 919.272 549.052, 919.552 554.221 C 920.065 563.695, 919.087 572.391, 917.839 569.457 C 917.303 568.197, 917.202 568.939, 917.556 571.541 C 918.439 578.042, 912.433 611.265, 910.825 608.774 C 910.362 608.056, 910.257 609.027, 910.586 611 C 911.051 613.794, 910.932 614.197, 909.997 613 C 909.033 611.765, 908.920 611.923, 909.359 613.899 C 910.134 617.396, 908.975 622.531, 907.793 620.831 C 907.159 619.918, 907.063 620.193, 907.488 621.706 C 908.254 624.436, 906.057 632.153, 904.744 631.342 C 904.167 630.985, 904.070 631.645, 904.500 633 C 904.999 634.573, 904.869 635.037, 904.067 634.541 C 903.259 634.042, 903.103 634.670, 903.541 636.666 C 904.016 638.836, 903.912 639.148, 903.096 638 C 902.467 637.114, 902.024 636.978, 902.015 637.668 C 902.007 638.311, 901.733 639.661, 901.406 640.668 C 900.911 642.192, 900.993 642.248, 901.890 641 C 903.436 638.852, 903.248 640.917, 901.406 646.323 C 900.462 649.092, 899.379 650.734, 898.751 650.346 C 898.110 649.950, 897.987 650.170, 898.440 650.902 C 899.529 652.665, 898.178 657.228, 896.816 656.386 C 896.126 655.960, 895.969 656.141, 896.410 656.854 C 897.430 658.504, 896.083 662.169, 894.758 661.350 C 894.057 660.917, 893.887 661.263, 894.288 662.308 C 895.140 664.528, 893.088 670.172, 891.733 669.335 C 891.053 668.914, 890.898 669.292, 891.310 670.366 C 892.057 672.313, 889.186 680.233, 887.999 679.499 C 887.095 678.941, 885.681 682.015, 886.476 682.810 C 886.764 683.098, 887 682.733, 887 682 C 887 681.267, 887.242 680.909, 887.537 681.204 C 888.316 681.983, 885.849 687.025, 884.959 686.474 C 884.547 686.220, 883.943 686.707, 883.616 687.558 C 883.276 688.443, 883.445 688.843, 884.011 688.493 C 885.451 687.603, 885.253 688.427, 882.825 693.424 C 881.628 695.887, 880.283 697.675, 879.836 697.399 C 879.389 697.122, 879.319 697.668, 879.681 698.612 C 880.125 699.769, 879.962 700.095, 879.181 699.612 C 878.401 699.130, 878.238 699.456, 878.681 700.612 C 879.125 701.769, 878.962 702.095, 878.181 701.612 C 877.401 701.130, 877.238 701.456, 877.681 702.612 C 878.125 703.769, 877.962 704.095, 877.181 703.612 C 876.401 703.130, 876.238 703.456, 876.681 704.612 C 877.125 705.769, 876.962 706.095, 876.181 705.612 C 875.401 705.130, 875.238 705.456, 875.681 706.612 C 876.125 707.769, 875.962 708.095, 875.181 707.612 C 874.401 707.130, 874.238 707.456, 874.681 708.612 C 875.125 709.769, 874.962 710.095, 874.181 709.612 C 873.401 709.130, 873.238 709.456, 873.681 710.612 C 874.125 711.769, 873.962 712.095, 873.181 711.612 C 872.442 711.155, 872.224 711.421, 872.579 712.345 C 872.895 713.168, 871.811 715.147, 870.067 716.931 C 866.979 720.091, 866.077 721.688, 868.083 720.449 C 868.678 720.081, 868.441 721.179, 867.557 722.890 C 866.672 724.600, 865.526 726, 865.010 726 C 864.493 726, 863.560 726.954, 862.935 728.121 C 862.021 729.830, 862.062 730.106, 863.150 729.547 C 863.893 729.164, 863.626 729.560, 862.559 730.426 C 861.491 731.292, 861.015 732, 861.500 732 C 861.985 732, 861.509 732.708, 860.441 733.574 C 859.374 734.440, 859.107 734.836, 859.850 734.453 C 860.938 733.894, 860.979 734.170, 860.065 735.879 C 859.440 737.046, 858.694 738, 858.406 738 C 858.118 738, 858.203 737.480, 858.595 736.845 C 859.028 736.146, 858.871 735.962, 858.198 736.378 C 857.587 736.755, 857.328 737.690, 857.621 738.455 C 857.923 739.241, 857.217 740.348, 856 741 C 854.754 741.667, 854.075 742.753, 854.391 743.575 C 854.705 744.394, 853.362 746.572, 851.226 748.707 C 849.186 750.747, 848.188 752.059, 849.008 751.622 C 849.829 751.184, 849.375 751.805, 848 753 C 846.625 754.195, 846.175 754.876, 847 754.513 C 847.825 754.149, 847.626 754.560, 846.559 755.426 C 845.491 756.292, 844.510 757.734, 844.378 758.631 C 844.246 759.528, 843.591 760.765, 842.923 761.381 C 842.001 762.229, 841.901 762.160, 842.508 761.095 C 843.033 760.175, 842.926 759.928, 842.198 760.378 C 841.587 760.755, 841.313 761.653, 841.589 762.372 C 841.865 763.091, 841.283 764.314, 840.296 765.090 C 838.658 766.376, 838.621 766.346, 839.872 764.750 C 840.627 763.788, 841.018 763, 840.741 763 C 840.464 763, 838.966 764.687, 837.412 766.750 C 835.723 768.991, 835.349 769.897, 836.484 769 C 837.929 767.858, 837.815 768.275, 836.003 770.750 C 833.733 773.850, 832.091 775.280, 833.595 772.845 C 834.028 772.146, 833.871 771.962, 833.198 772.378 C 832.587 772.755, 832.309 773.641, 832.579 774.345 C 832.849 775.050, 832.042 776.498, 830.785 777.563 L 828.500 779.500 830.500 777 L 832.500 774.500 830.274 776.384 C 829.049 777.420, 828.312 778.696, 828.636 779.220 C 828.959 779.743, 826.811 782.479, 823.862 785.299 C 820.913 788.119, 819.422 789.768, 820.550 788.963 C 821.677 788.158, 819.989 789.905, 816.800 792.845 C 813.610 795.785, 811 798.992, 811 799.973 C 811 800.953, 810.239 802.373, 809.308 803.128 C 807.850 804.310, 807.730 804.293, 808.443 803 C 808.897 802.175, 804.934 805.766, 799.635 810.980 C 790.289 820.176, 788.742 821.896, 791.155 820.405 C 791.892 819.949, 792.037 820.132, 791.554 820.912 C 791.139 821.584, 790.544 821.877, 790.231 821.564 C 789.293 820.626, 785.995 824.177, 786.684 825.384 C 787.034 825.998, 786.968 826.182, 786.537 825.793 C 785.498 824.857, 778.857 829.960, 779.584 831.136 C 779.895 831.638, 779.553 831.926, 778.824 831.775 C 778.096 831.624, 777.613 832.063, 777.750 832.750 C 777.888 833.438, 777.663 833.904, 777.250 833.788 C 775.728 833.356, 771.966 836.136, 772.627 837.205 C 773.002 837.812, 772.895 838.053, 772.388 837.740 C 771.881 837.427, 769.899 838.520, 767.983 840.169 C 766.068 841.819, 765.132 842.836, 765.905 842.430 C 766.861 841.926, 767.068 842.080, 766.554 842.912 C 766.139 843.584, 765.558 843.891, 765.263 843.596 C 764.287 842.620, 758.954 847.114, 759.649 848.326 C 760.018 848.972, 759.955 849.169, 759.509 848.766 C 759.063 848.362, 758.057 848.812, 757.275 849.766 C 756.324 850.924, 756.066 851.002, 756.498 850 C 756.854 849.175, 755.938 849.850, 754.463 851.500 C 752.987 853.150, 752.132 853.825, 752.562 853 C 753.445 851.306, 749.682 854.165, 746.663 857.482 C 745.653 858.592, 745.137 858.905, 745.518 858.177 C 746.470 856.352, 736.049 863.698, 733.140 866.902 C 731.842 868.331, 731.124 868.868, 731.545 868.095 C 732.381 866.558, 731.921 866.776, 726.293 870.583 C 724.529 871.776, 723.404 873.105, 723.793 873.537 C 724.182 873.968, 723.945 874.002, 723.268 873.612 C 721.767 872.750, 714.707 877.342, 715.755 878.499 C 716.165 878.951, 715.938 878.998, 715.252 878.603 C 713.810 877.773, 707.862 880.967, 708.606 882.172 C 708.880 882.615, 708.505 882.747, 707.773 882.466 C 707.041 882.186, 705.556 882.674, 704.471 883.552 C 703.387 884.430, 703.132 884.820, 703.905 884.420 C 704.836 883.936, 705.065 884.085, 704.585 884.862 C 704.187 885.506, 703.484 885.799, 703.021 885.513 C 701.679 884.684, 698.946 886.104, 699.660 887.259 C 700.037 887.869, 699.829 888.012, 699.163 887.601 C 698.043 886.909, 684.829 893.609, 684.165 895.206 C 683.980 895.650, 683.449 895.777, 682.983 895.490 C 681.801 894.759, 674.972 898.145, 675.595 899.153 C 675.875 899.606, 675.332 899.681, 674.388 899.319 C 673.132 898.836, 672.891 899.015, 673.490 899.985 C 674.037 900.869, 673.923 901.070, 673.146 900.590 C 671.627 899.651, 667.803 900.872, 668.537 902.061 C 668.850 902.566, 668.334 902.682, 667.388 902.319 C 666.308 901.904, 665.914 902.052, 666.325 902.717 C 666.684 903.299, 666.421 903.754, 665.739 903.730 C 662.318 903.606, 660.933 904.083, 661.595 905.155 C 662.015 905.834, 661.872 906.039, 661.248 905.653 C 659.949 904.850, 649 908.913, 649 910.198 C 649 910.704, 648.606 910.875, 648.125 910.577 C 647.644 910.280, 644.840 910.856, 641.893 911.858 C 638.374 913.054, 637.045 913.907, 638.018 914.345 C 638.833 914.712, 638.225 914.766, 636.666 914.466 C 634.860 914.118, 634.063 914.293, 634.468 914.948 C 634.818 915.514, 634.518 915.762, 633.802 915.499 C 631.994 914.835, 620.787 918.454, 621.730 919.397 C 622.151 919.818, 621.192 919.835, 619.599 919.435 C 617.404 918.885, 616.889 919.012, 617.476 919.961 C 618.043 920.879, 617.682 921.034, 616.125 920.540 C 614.951 920.167, 614 920.301, 614 920.839 C 614 921.375, 613.100 921.577, 612 921.290 C 610.900 921.002, 610 921.207, 610 921.745 C 610 922.283, 608.808 922.495, 607.351 922.216 C 605.475 921.858, 604.916 922.056, 605.435 922.895 C 605.966 923.753, 605.414 923.891, 603.435 923.394 C 601.334 922.867, 600.888 923.009, 601.505 924.009 C 602.049 924.889, 601.917 925.067, 601.096 924.560 C 599.772 923.741, 581 926.965, 581 928.010 C 581 928.364, 579.586 928.446, 577.858 928.192 C 575.896 927.904, 574.950 928.110, 575.340 928.741 C 575.742 929.391, 574.317 929.565, 571.332 929.228 C 568.230 928.879, 566.915 929.053, 567.350 929.758 C 567.783 930.458, 566.662 930.630, 564 930.273 C 561.800 929.978, 560 930.137, 560 930.626 C 560 931.115, 557.862 931.567, 555.250 931.631 C 552.638 931.694, 536.550 932.141, 519.500 932.623 C 502.450 933.105, 488.221 933.117, 487.879 932.650 C 487.538 932.182, 484.725 931.957, 481.628 932.150 C 478.531 932.342, 475.998 932.105, 475.999 931.623 C 475.999 931.140, 473.765 930.960, 471.034 931.223 C 467.840 931.530, 466.290 931.340, 466.690 930.692 C 467.097 930.034, 465.437 929.904, 461.907 930.317 C 458.933 930.664, 457.057 930.600, 457.738 930.173 C 459.352 929.161, 442.805 926.754, 440.450 927.658 C 439.147 928.157, 438.887 927.991, 439.478 927.036 C 440.093 926.040, 439.552 925.839, 437.195 926.185 C 435.496 926.434, 434.280 926.357, 434.492 926.013 C 435 925.191, 423.987 922.890, 422.865 923.583 C 422.389 923.877, 422 923.589, 422 922.942 C 422 922.232, 421.024 921.953, 419.530 922.239 C 418.035 922.525, 417.305 922.316, 417.679 921.711 C 418.058 921.097, 417.273 920.906, 415.649 921.216 C 414.192 921.495, 413 921.286, 413 920.753 C 413 920.209, 411.864 920.068, 410.416 920.432 C 408.604 920.887, 408.044 920.738, 408.541 919.933 C 409.037 919.131, 408.573 919.001, 407 919.500 C 405.324 920.032, 404.949 919.892, 405.531 918.950 C 406.100 918.029, 405.726 917.838, 404.156 918.249 C 402.970 918.559, 402 918.352, 402 917.790 C 402 917.227, 401.099 917.002, 399.999 917.290 C 398.738 917.620, 398.241 917.419, 398.655 916.749 C 399.076 916.067, 398.538 915.888, 397.155 916.249 C 395.772 916.611, 395.234 916.431, 395.655 915.749 C 396.076 915.067, 395.538 914.888, 394.155 915.249 C 392.772 915.611, 392.234 915.431, 392.655 914.749 C 393.076 914.067, 392.538 913.888, 391.155 914.249 C 389.786 914.607, 389.235 914.429, 389.648 913.761 C 390.078 913.065, 389.373 912.940, 387.565 913.394 C 385.906 913.811, 385.065 913.703, 385.425 913.121 C 386.186 911.891, 379.422 909.621, 377.865 910.583 C 377.196 910.997, 376.956 910.879, 377.308 910.311 C 378.027 909.148, 371.147 906.791, 369.680 907.697 C 369.096 908.059, 369.010 907.792, 369.471 907.047 C 370.051 906.109, 369.674 905.969, 368 906.500 C 366.547 906.961, 365.976 906.847, 366.389 906.179 C 367.178 904.903, 363.457 903.600, 361.854 904.590 C 361.130 905.037, 360.960 904.873, 361.405 904.155 C 362.080 903.061, 361.695 902.836, 358.750 902.600 C 358.063 902.545, 356.879 901.912, 356.121 901.192 C 355.363 900.473, 354.125 900.122, 353.371 900.411 C 352.617 900.700, 352 900.515, 352 900 C 352 899.485, 351.251 899.350, 350.336 899.701 C 349.292 900.102, 348.917 899.943, 349.330 899.275 C 350.116 898.003, 347.274 896.713, 345.755 897.651 C 345.128 898.039, 344.984 897.835, 345.405 897.155 C 346.080 896.061, 345.695 895.836, 342.750 895.600 C 342.063 895.545, 340.924 894.957, 340.221 894.292 C 339.518 893.628, 338.284 893.338, 337.479 893.646 C 336.675 893.955, 335.753 893.521, 335.431 892.681 C 335.109 891.842, 334.182 890.900, 333.371 890.589 C 332.420 890.224, 332.119 890.463, 332.522 891.261 C 332.867 891.943, 332.552 891.786, 331.824 890.912 C 331.096 890.039, 329.923 889.519, 329.219 889.756 C 328.514 889.993, 328.064 889.583, 328.219 888.844 C 328.376 888.091, 327.736 887.560, 326.761 887.637 C 325.804 887.712, 325.239 887.422, 325.505 886.992 C 326.161 885.930, 323.084 884.830, 321.755 885.651 C 321.079 886.069, 320.990 885.826, 321.510 884.985 C 322.109 884.015, 321.868 883.836, 320.612 884.319 C 319.668 884.681, 319.126 884.605, 319.407 884.150 C 319.689 883.695, 318.069 882.283, 315.808 881.012 C 313.548 879.742, 312.045 879.264, 312.470 879.951 C 313.074 880.929, 312.781 880.953, 311.121 880.065 C 309.954 879.440, 309 878.694, 309 878.406 C 309 878.118, 309.563 878.200, 310.250 878.588 C 311.108 879.072, 311.186 878.956, 310.500 878.218 C 309.950 877.627, 308.827 876.998, 308.004 876.821 C 307.181 876.645, 305.910 875.825, 305.179 875 C 304.334 874.044, 304.104 873.990, 304.547 874.850 C 305.098 875.921, 304.828 875.978, 303.238 875.128 C 302.137 874.538, 300.954 873.321, 300.609 872.424 C 300.257 871.506, 299.345 871.037, 298.524 871.353 C 297.721 871.661, 296.755 871.413, 296.378 870.802 C 295.933 870.082, 296.152 869.976, 297 870.500 C 297.892 871.051, 298.068 870.920, 297.553 870.086 C 297.138 869.414, 296.145 869.114, 295.347 869.420 C 294.549 869.727, 294.141 869.581, 294.439 869.098 C 295.125 867.988, 290.258 864.722, 289.041 865.475 C 288.544 865.782, 287.813 865.506, 287.415 864.862 C 286.932 864.081, 287.127 863.961, 288 864.500 C 288.892 865.051, 289.068 864.920, 288.553 864.086 C 288.138 863.414, 287.145 863.114, 286.347 863.420 C 285.549 863.727, 285.157 863.555, 285.476 863.039 C 286.201 861.865, 282.550 859.811, 281.471 860.785 C 281.036 861.178, 280.930 861.050, 281.237 860.500 C 281.543 859.950, 280.603 858.621, 279.147 857.547 C 276.597 855.665, 276.555 855.663, 278 857.507 C 279.246 859.097, 278.949 859.035, 276.250 857.143 C 274.462 855.889, 273 854.614, 273 854.309 C 273 854.005, 273.675 854.315, 274.500 855 C 275.325 855.685, 276 856.018, 276 855.741 C 276 855.464, 274.348 853.977, 272.329 852.437 C 270.310 850.897, 269.009 850.281, 269.439 851.069 C 269.868 851.856, 269.120 851.190, 267.775 849.589 C 266.152 847.655, 264.888 846.951, 264.011 847.493 C 263.196 847.997, 262.932 847.919, 263.322 847.288 C 264.125 845.989, 260.458 842.599, 259.135 843.417 C 258.590 843.754, 256.250 841.784, 253.936 839.039 C 251.622 836.295, 249.372 834.270, 248.937 834.539 C 248.501 834.808, 246.875 833.841, 245.322 832.390 C 243.770 830.938, 243.400 830.350, 244.500 831.082 C 245.600 831.814, 244.949 830.745, 243.054 828.706 C 239.347 824.720, 237.450 823.563, 240.595 827.207 C 241.735 828.528, 240.793 828.093, 238.250 826.123 C 235.912 824.313, 234 822.575, 234 822.261 C 234 821.947, 235.012 822.518, 236.250 823.531 C 237.487 824.543, 232.165 818.985, 224.423 811.179 C 216.681 803.374, 210.518 796.816, 210.727 796.606 C 210.937 796.396, 208.146 793.608, 204.525 790.409 C 200.904 787.211, 198.160 784.024, 198.428 783.328 C 198.695 782.632, 196.887 780.402, 194.410 778.373 C 191.934 776.344, 190.127 774.112, 190.394 773.415 C 190.662 772.717, 190.120 771.551, 189.191 770.823 C 187.734 769.683, 187.638 769.714, 188.500 771.047 C 189.050 771.898, 188.715 771.739, 187.755 770.693 C 186.796 769.647, 186.241 768.420, 186.522 767.965 C 186.803 767.510, 186.506 766.813, 185.862 766.415 C 185.131 765.963, 184.959 766.124, 185.405 766.845 C 185.797 767.480, 185.589 768, 184.942 768 C 184.266 768, 183.985 767.166, 184.280 766.037 C 184.579 764.893, 184.107 763.537, 183.147 762.787 C 181.662 761.627, 181.634 761.697, 182.861 763.500 C 183.609 764.600, 182.814 763.933, 181.093 762.017 C 179.373 760.101, 178.178 757.978, 178.439 757.299 C 178.699 756.620, 178.413 755.755, 177.802 755.378 C 177.089 754.937, 176.953 755.194, 177.422 756.095 C 177.824 756.868, 177.198 756.413, 176.032 755.085 C 174.866 753.757, 174.138 752.084, 174.413 751.367 C 174.688 750.650, 174.413 749.755, 173.802 749.378 C 173.064 748.921, 172.975 749.162, 173.537 750.095 C 174.258 751.292, 174.133 751.296, 172.692 750.128 C 170.739 748.544, 170.387 746.529, 172.250 747.601 C 172.976 748.019, 173.151 747.939, 172.667 747.410 C 172.208 746.910, 171.346 746.500, 170.750 746.500 C 170.154 746.500, 169.458 745.875, 169.204 745.111 C 168.887 744.161, 169.177 743.974, 170.120 744.521 C 170.935 744.993, 171.159 744.948, 170.667 744.410 C 170.208 743.910, 169.411 743.500, 168.895 743.500 C 168.379 743.500, 166.588 741.025, 164.916 738 C 162.791 734.156, 162.517 733.253, 164.005 735 C 165.535 736.797, 165.855 736.937, 165.140 735.500 C 163.905 733.015, 160.610 728.942, 161.500 731 C 161.857 731.825, 161.430 731.613, 160.552 730.529 C 159.674 729.444, 159.186 727.959, 159.466 727.227 C 159.782 726.405, 159.534 726.170, 158.819 726.612 C 158.059 727.081, 157.867 726.788, 158.261 725.761 C 158.592 724.899, 158.194 723.363, 157.376 722.347 C 155.989 720.624, 155.963 720.651, 156.980 722.750 C 158.938 726.790, 157.098 725.112, 154.947 720.895 C 153.795 718.638, 153.363 717.107, 153.988 717.492 C 154.612 717.878, 153.515 715, 151.549 711.097 C 149.583 707.194, 147.537 704, 147.002 704 C 145.551 704, 139.778 692.020, 140.422 690.344 C 140.727 689.548, 140.581 689.141, 140.098 689.440 C 138.854 690.209, 133.605 677.448, 134.542 675.933 C 135.018 675.162, 134.899 674.945, 134.227 675.360 C 132.916 676.170, 131.579 672.490, 132.590 670.854 C 132.994 670.200, 132.876 669.958, 132.320 670.302 C 130.442 671.463, 118.876 638.532, 118.638 631.346 C 118.562 629.062, 118.239 627.615, 117.919 628.132 C 117.346 629.059, 115.804 624.594, 114.504 618.241 C 114.137 616.449, 113.536 615.169, 113.169 615.396 C 112.494 615.813, 112.285 613.924, 111.800 602.990 C 111.653 599.684, 111.258 597.764, 110.922 598.722 C 109.346 603.216, 103.609 563.758, 104.352 553.532 C 104.659 549.297, 104.567 547.892, 104.120 550 C 102.853 555.973, 101.516 533.975, 101.627 509 C 101.710 490.429, 103.728 458.906, 105.373 450.500 C 107.201 441.157, 107.275 436.753, 105.511 442.250 M 917.426 443 C 917.663 444.375, 918.376 449.100, 919.009 453.500 C 920.700 465.253, 920.991 465.583, 920.419 455.099 C 920.121 449.651, 919.293 444.604, 918.449 443.099 L 916.994 440.500 917.426 443 M 921.531 474.904 C 921.789 480.076, 922.039 486.601, 922.086 489.404 C 922.166 494.167, 922.237 494.304, 923.163 491.500 C 924.337 487.945, 924.356 487.602, 923.643 482.750 C 923.315 480.521, 923.503 479, 924.105 479 C 924.662 479, 924.841 478.552, 924.502 478.004 C 924.164 477.456, 923.644 475.993, 923.348 474.754 C 921.220 465.843, 921.079 465.855, 921.531 474.904 M 390.473 487.250 L 383.500 494.500 390.750 487.527 C 394.738 483.692, 398 480.429, 398 480.277 C 398 479.543, 396.950 480.516, 390.473 487.250 M 722.320 505 C 722.320 508.575, 722.502 510.038, 722.723 508.250 C 722.945 506.462, 722.945 503.538, 722.723 501.750 C 722.502 499.962, 722.320 501.425, 722.320 505 M 921.349 515 C 921.349 519.675, 921.522 521.587, 921.732 519.250 C 921.943 516.913, 921.943 513.087, 921.732 510.750 C 921.522 508.413, 921.349 510.325, 921.349 515 M 671.378 534 C 671.378 540.325, 671.541 542.913, 671.739 539.750 C 671.937 536.587, 671.937 531.413, 671.739 528.250 C 671.541 525.087, 671.378 527.675, 671.378 534 M 687.360 534 C 687.360 539.225, 687.529 541.362, 687.735 538.750 C 687.941 536.138, 687.941 531.862, 687.735 529.250 C 687.529 526.638, 687.360 528.775, 687.360 534 M 724.310 551.500 C 724.315 554.800, 724.502 556.029, 724.725 554.232 C 724.947 552.435, 724.943 549.735, 724.715 548.232 C 724.486 546.729, 724.304 548.200, 724.310 551.500 M 686.320 558 C 686.320 561.575, 686.502 563.038, 686.723 561.250 C 686.945 559.462, 686.945 556.538, 686.723 554.750 C 686.502 552.962, 686.320 554.425, 686.320 558 M 670.320 565 C 670.320 568.575, 670.502 570.038, 670.723 568.250 C 670.945 566.462, 670.945 563.538, 670.723 561.750 C 670.502 559.962, 670.320 561.425, 670.320 565 M 685.310 582.500 C 685.315 585.800, 685.502 587.029, 685.725 585.232 C 685.947 583.435, 685.943 580.735, 685.715 579.232 C 685.486 577.729, 685.304 579.200, 685.310 582.500 M 728.310 639.500 C 728.315 642.800, 728.502 644.029, 728.725 642.232 C 728.947 640.435, 728.943 637.735, 728.715 636.232 C 728.486 634.729, 728.304 636.200, 728.310 639.500 M 252.872 649.750 C 251.657 651.300, 251.683 651.358, 253.100 650.252 C 254.363 649.267, 298.025 648.951, 461.100 648.750 L 667.500 648.495 460.872 648.248 C 265.105 648.013, 254.173 648.092, 252.872 649.750 M 664.310 686.500 C 664.315 689.800, 664.502 691.029, 664.725 689.232 C 664.947 687.435, 664.943 684.735, 664.715 683.232 C 664.486 681.729, 664.304 683.200, 664.310 686.500 M 679.336 700 C 679.336 704.125, 679.513 705.813, 679.728 703.750 C 679.944 701.688, 679.944 698.313, 679.728 696.250 C 679.513 694.188, 679.336 695.875, 679.336 700 M 147 705.367 C 147 706.450, 151.970 716, 152.534 716 C 152.809 716, 151.847 713.638, 150.397 710.750 C 147.607 705.197, 147 704.235, 147 705.367 M 221.500 810 C 227.531 816.050, 232.691 821, 232.966 821 C 233.241 821, 228.531 816.050, 222.500 810 C 216.469 803.950, 211.309 799, 211.034 799 C 210.759 799, 215.469 803.950, 221.500 810" stroke="none" fill="#c8493f" fill-rule="evenodd"/><path d="M 486.500 94.586 C 431.216 98.768, 382.944 111.523, 335.186 134.568 C 313.306 145.126, 303.148 150.900, 285 163.094 C 238.486 194.349, 195.945 237.919, 167.573 283.363 C 131.896 340.505, 110.536 406.344, 104.530 477.678 C 98.468 549.684, 111.836 626.264, 141.857 691.500 C 174.833 763.159, 224.519 821.123, 291 865.493 C 344.617 901.277, 400.442 921.891, 467.500 930.668 C 489.110 933.496, 540.473 933.225, 562.884 930.164 C 621.029 922.223, 666.252 906.394, 717 876.222 C 759.188 851.138, 799.778 815.066, 831.745 774.247 C 896.334 691.774, 928.135 584.145, 919.473 477.329 C 916.427 439.764, 911.214 413.289, 899.966 378.261 C 868.243 279.472, 800.399 195.963, 711.810 146.660 C 661.530 118.676, 610.600 102.483, 554 96.484 C 540.099 95.010, 496.933 93.796, 486.500 94.586 M 681.329 288.458 C 675.365 291.052, 675.523 289.437, 675.243 350.500 C 675.053 391.854, 674.670 407.111, 673.778 408.835 C 672.410 411.481, 668.129 414, 665 414 C 661.694 414, 657.501 411.394, 656.195 408.528 C 655.314 406.596, 655 391.305, 655 350.403 C 655 291.803, 654.891 290.323, 650.455 288.621 C 646.578 287.133, 642.152 287.992, 640.073 290.635 C 638.027 293.235, 638 294.069, 638 354.547 C 638 420.788, 638.215 424.057, 643.424 437 C 647.354 446.764, 654.618 455.863, 665.228 464.309 C 680.964 476.837, 686.638 486.220, 687.670 501.421 C 688.444 512.824, 685.169 592.709, 680.800 669 C 679.026 699.970, 679.151 709.786, 681.374 714 C 685.943 722.662, 695.874 729, 704.879 729 C 716.982 729, 728.520 720.280, 731.094 709.189 C 731.577 707.107, 731.538 697.008, 731.004 686 C 730.484 675.275, 729.152 647.150, 728.044 623.500 C 722.362 502.195, 722.289 499.796, 724.039 492.209 C 725.906 484.113, 729.225 478.642, 736.297 472 C 756.926 452.626, 759.626 449.623, 763.270 442 C 770.720 426.413, 770.500 428.984, 770.500 357.331 L 770.500 293.162 768.076 290.581 C 765.666 288.015, 761.260 287.195, 757.545 288.621 C 753.104 290.325, 753 291.758, 753 351.050 L 753 407.200 749.472 410.728 C 746.284 413.916, 745.547 414.203, 741.825 413.703 C 739.560 413.400, 736.760 412.205, 735.603 411.049 C 733.527 408.974, 733.494 408.210, 733 352.223 C 732.459 290.866, 732.562 291.944, 726.958 288.634 C 724.396 287.121, 723.716 287.092, 720.665 288.367 C 718.783 289.153, 716.852 290.404, 716.372 291.148 C 715.892 291.892, 715.275 318.150, 715 349.500 C 714.617 393.215, 714.202 407.022, 713.220 408.740 C 709.976 414.417, 701.494 415.283, 696.910 410.405 L 694.500 407.841 694 350.670 C 693.725 319.227, 693.148 292.801, 692.719 291.947 C 691.912 290.345, 686.843 286.970, 685.346 287.039 C 684.881 287.061, 683.073 287.699, 681.329 288.458 M 487.045 345.064 C 471.126 348.287, 459.863 361.422, 459.766 376.875 C 459.707 386.322, 462.132 392.889, 468.084 399.402 C 470.788 402.360, 473 405.415, 473 406.191 C 473 407.236, 469.828 408.038, 460.749 409.289 C 401.952 417.390, 347.164 452.414, 313.580 503.367 C 291.248 537.249, 277 583.247, 277 621.461 L 277 629 472.364 629 L 667.728 629 668.396 617.750 C 669.741 595.091, 671.979 535.113, 671.990 521.472 C 672 507.493, 671.988 507.418, 668.507 500.155 C 663.866 490.470, 657.869 482.774, 644.551 469.410 C 611.945 436.691, 566.235 414.217, 521.424 408.874 C 515.966 408.223, 511.317 407.540, 511.094 407.356 C 510.871 407.173, 513.033 404.543, 515.899 401.514 C 523.408 393.574, 526.491 386.428, 526.473 377 C 526.456 367.841, 524.163 362.226, 517.555 355.162 C 509.928 347.009, 497.597 342.927, 487.045 345.064 M 421.641 451.431 C 384.047 468.478, 353.220 499.343, 334.031 539.146 C 325.369 557.115, 318.725 578.996, 317.831 592.500 L 317.500 597.500 328.391 597.500 C 337.072 597.500, 339.434 597.196, 340.032 596 C 340.445 595.175, 341.717 589.077, 342.858 582.449 C 345.582 566.635, 352.586 545.310, 359.757 531 C 376.300 497.986, 399.055 474.277, 428.380 459.500 C 439.052 454.123, 441.196 452.127, 439.394 449.250 C 437.368 446.016, 432.174 446.654, 421.641 451.431 M 253.006 649.493 C 252.200 650.464, 251.910 653.175, 252.179 657.243 C 253.243 673.391, 266.900 688.356, 283.799 691.891 C 291.934 693.593, 663.922 693.455, 664.450 691.750 C 664.663 691.063, 665.211 680.936, 665.669 669.248 L 666.500 647.995 460.372 647.998 C 278.778 648, 254.097 648.178, 253.006 649.493" stroke="none" fill="#cb1d1c" fill-rule="evenodd"/></svg>